<svg width="24" height="24" viewBox="0 0 24 24" fill="none" xmlns="http://www.w3.org/2000/svg">
<path d="M16 20L3 20V18L16 18V20ZM19.5 17.5C20.3284 17.5 21 18.1716 21 19C21 19.8284 20.3284 20.5 19.5 20.5C18.6716 20.5 18 19.8284 18 19C18 18.1716 18.6716 17.5 19.5 17.5ZM19.5 10.5C20.3284 10.5 21 11.1716 21 12C21 12.8284 20.3284 13.5 19.5 13.5C18.6716 13.5 18 12.8284 18 12C18 11.1716 18.6716 10.5 19.5 10.5ZM19.5 3.6C20.3284 3.6 21 4.2716 21 5.1C21 5.9284 20.3284 6.6 19.5 6.6C18.6716 6.6 18 5.9284 18 5.1C18 4.2716 18.6716 3.6 19.5 3.6ZM16 13L3 13V11L16 11V13ZM16 6L3 6L3 4L16 4V6Z" fill="#A6FFD4"/>
</svg>
