<svg width="13" height="13" viewBox="0 0 13 13" fill="none" xmlns="http://www.w3.org/2000/svg">
<path d="M9.76679 9.00078L12.0866 11.3206L11.3206 12.0866L9.00077 9.7668C8.16666 10.4341 7.10884 10.8333 5.95834 10.8333C3.26734 10.8333 1.08334 8.64934 1.08334 5.95834C1.08334 3.26734 3.26734 1.08334 5.95834 1.08334C8.64934 1.08334 10.8333 3.26734 10.8333 5.95834C10.8333 7.10884 10.4341 8.16666 9.76679 9.00078ZM8.68005 8.59886C9.3424 7.91625 9.75 6.98513 9.75 5.95834C9.75 3.86345 8.05323 2.16668 5.95834 2.16668C3.86344 2.16668 2.16667 3.86345 2.16667 5.95834C2.16667 8.05324 3.86344 9.75001 5.95834 9.75001C6.98512 9.75001 7.91624 9.34241 8.59885 8.68006L8.68005 8.59886Z" fill="#3A7A66"/>
</svg>
