<svg width="20" height="20" viewBox="0 0 20 20" fill="none" xmlns="http://www.w3.org/2000/svg">
<g clip-path="url(#clip0_172_411)">
<path d="M7.21312 3.27184L9.40534 1.07964C9.73375 0.751202 10.2663 0.751202 10.5947 1.07964L12.7869 3.27184H15.8871C16.3516 3.27184 16.7282 3.64838 16.7282 4.11286V7.21309L18.9204 9.40531C19.2488 9.73373 19.2488 10.2663 18.9204 10.5947L16.7282 12.7869V15.8871C16.7282 16.3516 16.3516 16.7281 15.8871 16.7281H12.7869L10.5947 18.9203C10.2663 19.2488 9.73375 19.2488 9.40534 18.9203L7.21312 16.7281H4.11288C3.6484 16.7281 3.27186 16.3516 3.27186 15.8871V12.7869L1.07967 10.5947C0.751225 10.2663 0.751225 9.73373 1.07967 9.40531L3.27186 7.21309V4.11286C3.27186 3.64838 3.6484 3.27184 4.11288 3.27184H7.21312ZM4.9539 4.95388V7.90982L2.86373 10L4.9539 12.0902V15.0461H7.90984L10 17.1363L12.0902 15.0461H15.0461V12.0902L17.1363 10L15.0461 7.90982V4.95388H12.0902L10 2.86371L7.90984 4.95388H4.9539ZM10 13.3641C8.14208 13.3641 6.63593 11.8579 6.63593 10C6.63593 8.14206 8.14208 6.63591 10 6.63591C11.8579 6.63591 13.3641 8.14206 13.3641 10C13.3641 11.8579 11.8579 13.3641 10 13.3641ZM10 11.682C10.929 11.682 11.6821 10.929 11.6821 10C11.6821 9.07101 10.929 8.31796 10 8.31796C9.07103 8.31796 8.31799 9.07101 8.31799 10C8.31799 10.929 9.07103 11.682 10 11.682Z" fill="#006553"/>
</g>
<defs>
<clipPath id="clip0_172_411">
<rect width="20" height="20" fill="white"/>
</clipPath>
</defs>
</svg>
